<svg version="1.1" id="Layer_1" xmlns="http://www.w3.org/2000/svg" xmlns:xlink="http://www.w3.org/1999/xlink" x="0px" y="0px"
	 width="100%" viewBox="0 0 1024 1024" enable-background="new 0 0 1024 1024" xml:space="preserve">
<path fill="#EF5350" opacity="1.000000" stroke="none" 
	d="
M740.950439,836.146851 
	C739.452637,836.097961 737.954895,836.006348 736.457092,836.006287 
	C587.130432,835.999939 437.803741,836.000366 288.477081,836.002441 
	C287.644043,836.002441 286.811035,836.030151 285.046875,836.031677 
	C257.217499,836.060669 230.319229,836.102905 203.420959,836.145081 
	C191.259201,836.096680 179.097412,836.058350 166.935715,835.997681 
	C145.336197,835.889954 129.017212,819.616211 129.014053,797.982666 
	C128.989410,629.349915 128.987640,460.717194 129.016724,292.084473 
	C129.020401,270.791595 145.307266,254.399536 166.601959,254.167038 
	C178.571808,254.036331 190.544250,254.143494 203.426682,254.143494 
	C203.426682,257.561523 203.426682,260.646118 203.416626,264.620972 
	C203.406555,267.776367 203.406555,270.041504 203.406555,272.362946 
	C230.955261,272.362946 257.827881,272.362946 284.897949,272.362946 
	C284.897949,269.524048 284.897949,267.045074 284.897949,264.566071 
	C284.897949,261.283508 284.897949,258.000916 284.897949,254.153992 
	C312.035583,254.153992 338.567627,254.153992 365.558167,254.656403 
	C366.016663,261.582367 366.016663,268.005920 366.016663,274.584534 
	C384.947662,274.584534 403.248047,274.584534 421.905731,274.584534 
	C421.905731,267.542908 421.905731,260.923096 422.379639,254.242432 
	C485.897247,254.197525 548.940979,254.213455 611.971069,254.683456 
	C611.946411,260.298309 612.132568,265.469604 611.857117,270.616211 
	C611.663696,274.229004 613.086304,275.106873 616.472290,275.074982 
	C631.953491,274.929260 647.436951,275.021667 662.919495,274.989777 
	C664.182190,274.987183 665.444214,274.692749 667.003540,274.496582 
	C667.003540,267.511414 667.003540,260.873016 667.003540,254.234634 
	C691.384033,254.234634 715.764526,254.234634 741.007751,254.234634 
	C741.007751,257.445007 741.007751,260.513245 741.012329,264.483704 
	C741.016968,267.666168 741.016968,269.946472 741.016968,272.417267 
	C768.381775,272.417267 795.250366,272.417267 822.595703,272.417267 
	C822.595703,269.655762 822.595703,267.198883 822.595703,264.742035 
	C822.595703,261.434082 822.595703,258.126129 822.595703,254.138428 
	C826.507874,254.138428 829.950073,254.138092 833.392334,254.138489 
	C841.890869,254.139435 850.389832,254.085968 858.887878,254.152512 
	C880.772888,254.323883 896.985901,270.634888 896.989990,292.575684 
	C897.011353,408.222473 897.000122,523.869263 897.000122,639.516052 
	C897.000122,691.840393 897.005066,744.164734 896.997681,796.489075 
	C896.994324,820.131042 881.160095,835.981384 857.556702,836.000061 
	C846.225403,836.009033 834.894043,836.017456 822.632935,836.048218 
	C794.785522,836.095825 767.867981,836.121338 740.950439,836.146851 
M335.500000,766.032715 
	C499.220581,766.032715 662.941162,766.032715 826.648743,766.032715 
	C826.648743,618.256348 826.648743,471.371460 826.648743,324.002441 
	C824.140747,324.002441 822.005798,324.002441 819.870911,324.002441 
	C616.564941,324.002441 413.259033,324.002380 209.953094,324.002655 
	C203.213547,324.002655 198.967682,328.127838 198.967560,334.711151 
	C198.964722,476.525360 198.964554,618.339600 198.975128,760.153809 
	C198.975266,761.931519 199.121445,763.709290 199.223419,766.032776 
	C244.604843,766.032776 289.552429,766.032776 335.500000,766.032715 
z"/>
<path fill="#232222" opacity="1.000000" stroke="none" 
	d="
M374.965637,253.978241 
	C375.780853,244.396545 375.368622,234.512939 377.637299,225.288727 
	C384.973328,195.461517 411.702393,174.484802 442.488831,174.274292 
	C491.923920,173.936264 541.365845,173.861359 590.799500,174.291153 
	C628.256409,174.616806 657.749573,205.026535 658.031982,242.531967 
	C658.058350,246.027374 658.043030,249.523087 658.042236,253.942261 
	C658.037415,258.442047 658.037415,262.018250 658.037415,265.597412 
	C645.261475,265.597412 633.362183,265.597412 620.798767,265.597412 
	C620.798767,261.484436 620.798767,257.699188 620.843628,253.451019 
	C620.892029,251.157425 620.763184,249.315384 620.919250,247.497833 
	C622.674438,227.058823 608.262634,210.813354 584.624207,211.227554 
	C538.871704,212.029221 493.095184,211.457916 447.328613,211.473190 
	C445.002472,211.473969 442.663696,211.514709 440.352356,211.749130 
	C425.797119,213.225281 414.428467,224.274567 412.808838,238.857971 
	C412.260651,243.793869 412.535187,248.821106 412.343048,254.272980 
	C412.252380,258.328064 412.252380,261.916779 412.252380,265.623047 
	C399.442047,265.623047 387.541992,265.623047 374.965637,265.623047 
	C374.965637,261.540802 374.965637,257.759521 374.965637,253.978241 
z"/>
<path fill="#252525" opacity="1.000000" stroke="none" 
	d="
M203.420715,836.599731 
	C230.319229,836.102905 257.217499,836.060669 284.583984,836.082703 
	C285.052216,841.129944 285.052216,846.112976 285.052216,851.468628 
	C257.903870,851.468628 230.939392,851.468628 203.420456,851.468628 
	C203.420456,846.614563 203.420456,841.834534 203.420715,836.599731 
z"/>
<path fill="#252525" opacity="1.000000" stroke="none" 
	d="
M740.951416,836.601868 
	C767.867981,836.121338 794.785522,836.095825 822.140991,836.107849 
	C822.578979,841.252747 822.578979,846.359985 822.578979,851.611633 
	C795.121277,851.611633 768.268005,851.611633 740.952454,851.611633 
	C740.952454,846.613831 740.952454,841.835327 740.951416,836.601868 
z"/>
<path fill="#2B2828" opacity="1.000000" stroke="none" 
	d="
M284.438171,264.554535 
	C284.897949,267.045074 284.897949,269.524048 284.897949,272.362946 
	C257.827881,272.362946 230.955261,272.362946 203.406555,272.362946 
	C203.406555,270.041504 203.406555,267.776367 203.406586,265.127289 
	C230.263885,264.676575 257.121155,264.609802 284.438171,264.554535 
z"/>
<path fill="#2B2828" opacity="1.000000" stroke="none" 
	d="
M822.167786,264.655884 
	C822.595703,267.198883 822.595703,269.655762 822.595703,272.417267 
	C795.250366,272.417267 768.381775,272.417267 741.016968,272.417267 
	C741.016968,269.946472 741.016968,267.666168 741.060913,264.973511 
	C767.983215,264.563965 794.861511,264.566833 822.167786,264.655884 
z"/>
<path fill="#A33F3E" opacity="1.000000" stroke="none" 
	d="
M374.519592,254.004471 
	C374.965637,257.759521 374.965637,261.540802 374.965637,265.623047 
	C387.541992,265.623047 399.442047,265.623047 412.252380,265.623047 
	C412.252380,261.916779 412.252380,258.328064 412.757874,254.335953 
	C416.144165,254.056122 419.024933,254.179688 421.905731,254.303268 
	C421.905731,260.923096 421.905731,267.542908 421.905731,274.584534 
	C403.248047,274.584534 384.947662,274.584534 366.016663,274.584534 
	C366.016663,268.005920 366.016663,261.582367 366.026215,254.707443 
	C368.715027,254.180969 371.394318,254.105835 374.519592,254.004471 
z"/>
<path fill="#A33D3C" opacity="1.000000" stroke="none" 
	d="
M620.798767,253.913956 
	C620.798767,257.699188 620.798767,261.484436 620.798767,265.597412 
	C633.362183,265.597412 645.261475,265.597412 658.037415,265.597412 
	C658.037415,262.018250 658.037415,258.442047 658.090515,254.405075 
	C660.802246,253.987610 663.460938,254.030914 666.561523,254.154434 
	C667.003540,260.873016 667.003540,267.511414 667.003540,274.496582 
	C665.444214,274.692749 664.182190,274.987183 662.919495,274.989777 
	C647.436951,275.021667 631.953491,274.929260 616.472290,275.074982 
	C613.086304,275.106873 611.663696,274.229004 611.857117,270.616211 
	C612.132568,265.469604 611.946411,260.298309 612.413452,254.608490 
	C615.512573,254.024261 618.155701,253.969116 620.798767,253.913956 
z"/>
<path fill="#9B3F3D" opacity="1.000000" stroke="none" 
	d="
M335.000000,766.032715 
	C289.552429,766.032776 244.604843,766.032776 199.223419,766.032776 
	C199.121445,763.709290 198.975266,761.931519 198.975128,760.153809 
	C198.964554,618.339600 198.964722,476.525360 198.967560,334.711151 
	C198.967682,328.127838 203.213547,324.002655 209.953094,324.002655 
	C413.259033,324.002380 616.564941,324.002441 819.870911,324.002441 
	C822.005798,324.002441 824.140747,324.002441 826.648743,324.002441 
	C826.648743,471.371460 826.648743,618.256348 826.648743,766.032715 
	C662.941162,766.032715 499.220581,766.032715 335.000000,766.032715 
M208.018875,447.500000 
	C208.018875,550.549927 208.018875,653.599854 208.018875,756.580933 
	C411.800690,756.580933 614.664368,756.580933 817.609436,756.580933 
	C817.609436,615.316284 817.609436,474.449615 817.609436,333.378998 
	C614.374817,333.378998 411.511963,333.378998 208.018921,333.378998 
	C208.018921,371.292480 208.018921,408.896240 208.018875,447.500000 
z"/>
<path fill="#EF5350" opacity="1.000000" stroke="none" 
	d="
M208.018890,447.000000 
	C208.018921,408.896240 208.018921,371.292480 208.018921,333.378998 
	C411.511963,333.378998 614.374817,333.378998 817.609436,333.378998 
	C817.609436,474.449615 817.609436,615.316284 817.609436,756.580933 
	C614.664368,756.580933 411.800690,756.580933 208.018875,756.580933 
	C208.018875,653.599854 208.018875,550.549927 208.018890,447.000000 
M473.814209,617.500000 
	C473.814209,629.920044 473.814209,642.340088 473.814209,654.774841 
	C500.285034,654.774841 526.026001,654.774841 552.343628,654.774841 
	C552.343628,631.252747 552.343628,608.033142 552.343628,584.245117 
	C576.139465,584.245117 599.364380,584.245117 622.599365,584.245117 
	C622.599365,557.799500 622.599365,531.936096 622.599365,505.575623 
	C598.952271,505.575623 575.715088,505.575623 551.971008,505.575623 
	C551.971008,481.846100 551.971008,458.613464 551.971008,435.351349 
	C525.709290,435.351349 499.967377,435.351349 473.727295,435.351349 
	C473.727295,458.897339 473.727295,482.142365 473.727295,505.870728 
	C449.993591,505.870728 426.754150,505.870728 403.331177,505.870728 
	C403.331177,532.240967 403.331177,558.118774 403.331177,584.545044 
	C426.915253,584.545044 450.161194,584.545044 473.814026,584.545044 
	C473.814026,595.559570 473.814026,606.029785 473.814209,617.500000 
z"/>
<path fill="#F3FFFF" opacity="1.000000" stroke="none" 
	d="
M473.814117,617.000000 
	C473.814026,606.029785 473.814026,595.559570 473.814026,584.545044 
	C450.161194,584.545044 426.915253,584.545044 403.331177,584.545044 
	C403.331177,558.118774 403.331177,532.240967 403.331177,505.870728 
	C426.754150,505.870728 449.993591,505.870728 473.727295,505.870728 
	C473.727295,482.142365 473.727295,458.897339 473.727295,435.351349 
	C499.967377,435.351349 525.709290,435.351349 551.971008,435.351349 
	C551.971008,458.613464 551.971008,481.846100 551.971008,505.575623 
	C575.715088,505.575623 598.952271,505.575623 622.599365,505.575623 
	C622.599365,531.936096 622.599365,557.799500 622.599365,584.245117 
	C599.364380,584.245117 576.139465,584.245117 552.343628,584.245117 
	C552.343628,608.033142 552.343628,631.252747 552.343628,654.774841 
	C526.026001,654.774841 500.285034,654.774841 473.814209,654.774841 
	C473.814209,642.340088 473.814209,629.920044 473.814117,617.000000 
z"/>
</svg>